<?xml version="1.0" encoding="UTF-8"?>
<svg width="567px" height="162px" viewBox="0 0 567 162" version="1.1" xmlns="http://www.w3.org/2000/svg" xmlns:xlink="http://www.w3.org/1999/xlink" xmlns:sketch="http://www.bohemiancoding.com/sketch/ns">
    <!-- Generator: Sketch 3.4.2 (15855) - http://www.bohemiancoding.com/sketch -->
    <title>cpplondon-logo-light</title>
    <desc>Created with Sketch.</desc>
    <defs>
        <radialGradient cx="45.3042872%" cy="50%" fx="45.3042872%" fy="50%" r="63.0972551%" id="radialGradient-1">
            <stop stop-color="#3023AE" offset="0%"></stop>
            <stop stop-color="#53A0FE" offset="37.8362188%"></stop>
            <stop stop-color="#87D9FF" offset="100%"></stop>
        </radialGradient>
    </defs>
    <g id="Page-1" stroke="none" stroke-width="1" fill="none" fill-rule="evenodd" sketch:type="MSPage">
        <g id="cpplondon-logo-light" sketch:type="MSLayerGroup" transform="translate(-1.000000, 0.000000)">
            <path d="M0.938476562,161.03418 L12.2216797,143.183594 L15.96875,139.329102 L25.1972656,132.013672 L36.2871094,127.673828 L54.9443359,123.098633 L64.9501953,120.15332 L79.2080078,116.556641 L89.4619141,116.107422 L99.6630859,115.943359 L111.181641,116.570312 L118.606445,117.541992 L125.155273,117.089844 L131.851562,114.738281 L138.882812,110.195312 L144.344727,103.40625 L149.010742,94.8369141 L151.726562,84.3623047 L153.5,72.8808594 L153.417969,62.7216797 L153.417969,51.7861328 L154.347656,44.3730469 L156.313477,36.4189453 L159.643555,28.0634766 L164.273437,19.6445312 L167.883789,14.4462891 L172.180664,10.6074219 L177.182617,6.84179688 L185.000977,3.21875 L192.504883,1.66796875 L201.386719,0.78125 L210.083008,0.34375 L223.066406,1.42285156 L233.657227,2.67285156 L246.46582,5.18359375 L255.915039,6.70410156 L265.058594,8.69824219 L273.911133,11.1337891 L281.120117,14.0166016 L302.104492,23.9951172 L315.076172,30.5830078 L321.849609,33.0898438 L326.986328,34.6572266 L330.75,34.6572266 L334.822266,33.9804688 L339.305664,32.9355469 L343.860352,30.1230469 L348.00293,25.9541016 L362.155273,12.1367188 L369.473633,6.1484375 L377.3125,1.7109375 L383.787109,0.41015625 L389.473633,0.354492188 L396.890625,1.7734375 L401.419922,3.44238281 L408.890625,7.2578125 L413.287109,12.0927734 L417.050781,18.0917969 L419.338867,23.1865234 L421.089844,28.5263672 L422.245117,36.3662109 L422.34082,43.5039062 L422.34082,56.46875 L422.077148,69.3369141 L422.845703,77.203125 L424.150391,82.3515625 L425.824219,85.7773437 L428.09375,88.4658203 L430.950195,91.6679688 L435.229492,94.9521484 L440.529297,99.1279297 L446.321289,101.716797 L451.677734,103.413086 L458.095703,104.69043 L464.928711,105.246094 L470.620117,104.740234 L475.143555,102.645508 L480.755859,99.7011719 L485.697266,93.7910156 L487.552734,86.6367187 L487.714844,79.0644531 L486.235352,71.0546875 L483.005859,64.3115234 L478.524414,54.1806641 L475.600586,46.3623047 L473.155273,37.5810547 L472.827148,31.5205078 L474.056641,24.5966797 L476.272461,20.2021484 L479.602539,16.0097656 L482.791016,13.78125 L488.128906,10.8359375 L494.835938,7.69238281 L499.105469,5.80371094 L503.914062,4.97070312 L508.525391,5.21386719 L512.107422,6.03417969 L515.431641,7.59375 L518.295898,9.46484375 L522.223633,13.9375 L526.245117,18.5009766 L534.550781,29.7548828 L539.601562,35.4560547 L544.571289,39.8427734 L549.043945,42.5859375 L554.705078,44.4394531 L560.702148,45.8623047 L567.480469,46.0556641 L567.789062,69.0654297 L561.15332,68.6972656 L555.202148,67.7949219 L548.844727,65.15625 L542.96875,62.1699219 L538.172852,58.7939453 L535.544922,55.7744141 L530.225586,48.6435547 L517.154297,31.0664062 L512.912109,26.7988281 L507.892578,23.6201172 L503.799805,23.0458984 L500.757812,23.2890625 L497.741211,24.5048828 L495.107422,26.6328125 L493.401367,29.3984375 L492.738281,32.7470703 L492.410156,35.625 L492.328125,39.625 L492.895508,44.2314453 L493.949219,47.6494141 L495.68457,53.0888672 L497.901367,60.4023438 L499.800781,65.2587891 L502.548828,72.4755859 L503.758789,77.2539062 L504.001953,81.8525391 L503.591797,87.6523437 L502.279297,93.6396484 L500.228516,97.7734375 L497.680664,102.786133 L493.77832,107.879883 L490.204102,110.657227 L484.433594,115.088867 L476.452148,118.636719 L467.697266,121.188477 L461.432617,122.282227 L455.256836,122.118164 L448.383789,120.62793 L441.53418,118.427734 L435.536133,115.625 L430.467773,111.765625 L424.608398,107.036133 L418.282227,99.7978516 L412.105469,90.5341797 L407.930664,81.7734375 L406.057617,75.5566406 L405.387695,69.8681641 L405.305664,65.0966797 L405.873047,57.7470703 L407.353516,46.4482422 L407.908203,35.5722656 L407.40918,30.0605469 L405.679688,26.6025391 L402.724609,23.3173828 L397.416992,19.8515625 L392.736328,17.2617188 L387.686523,15.9482422 L383.226562,16.3603516 L380.853516,17.1982422 L376.564453,19.1845703 L373.768555,20.9208984 L368.566406,23.984375 L364.581055,27.3300781 L359.256836,31.9492188 L353.748047,36.3496094 L350.123047,39.6005859 L345.837891,42.6210937 L341.217773,45.7021484 L337.734375,46.9990234 L332.441406,48.5664062 L328.539062,48.484375 L323.805664,47.9921875 L319.017578,47.3359375 L315.197266,46.2626953 L310.297852,44.2402344 L302.049805,40.7744141 L289.695312,34.4755859 L273.754883,28.4707031 L265.598633,26.1015625 L254.75293,22.8808594 L243.089844,20.1064453 L233.5625,19.4033203 L222.892578,19.2275391 L211.801758,19.3994141 L202.362305,19.9804688 L194.412109,21.2304688 L188.204102,22.8525391 L183.430664,24.9199219 L178.808594,28.0078125 L175.109375,32.5888672 L172.828125,37.4785156 L170.989258,44.5888672 L170.467773,49.578125 L170.044922,55.1279297 L169.532227,61.2714844 L169.443359,67.6484375 L168.78125,74.8525391 L168.152344,82.3164062 L166.222656,91.4023438 L164.516602,99.0078125 L160.538086,107.780273 L156.524414,115.62793 L152.058594,120.15332 L147.878906,124.382812 L143.136719,128.085938 L138.336914,130.323242 L132.152344,132.128906 L125.811523,132.930664 L119.509766,132.75293 L112.831055,131.961914 L106.026367,130.566406 L100.25,130.143555 L92.6708984,130.143555 L88.0615234,131.008789 L80.7578125,131.961914 L71.9316406,134.239258 L60.6572266,136.817383 L49.5253906,139.473633 L41.328125,142.466797 L33.1679687,146.378906 L29.5585937,149.765625 L25.1435547,155.046875 L22.2939453,159.075195 L21.4609375,161.135742 L0.938476562,161.03418 Z" id="Path-1" fill="url(#radialGradient-1)" sketch:type="MSShapeGroup"></path>
            <path d="M218,105 L191.3,105 L191.3,62.1 L197.48,62.1 L197.48,98.76 L218,98.76 L218,105 Z M252.56,90.84 C252.56,94.9200204 251.090015,98.4299853 248.15,101.37 C245.209985,104.310015 241.70002,105.78 237.62,105.78 C233.499979,105.78 229.980015,104.320015 227.06,101.4 C224.139985,98.4799854 222.68,94.9600206 222.68,90.84 C222.68,86.7199794 224.139985,83.2000146 227.06,80.28 C229.980015,77.3599854 233.499979,75.9 237.62,75.9 C241.740021,75.9 245.259985,77.3599854 248.18,80.28 C251.100015,83.2000146 252.56,86.7199794 252.56,90.84 L252.56,90.84 Z M246.62,90.84 C246.62,88.3599876 245.740009,86.2400088 243.98,84.48 C242.219991,82.7199912 240.100012,81.84 237.62,81.84 C235.139988,81.84 233.020009,82.7199912 231.26,84.48 C229.499991,86.2400088 228.62,88.3599876 228.62,90.84 C228.62,93.3200124 229.499991,95.4399912 231.26,97.2 C233.020009,98.9600088 235.139988,99.84 237.62,99.84 C240.100012,99.84 242.219991,98.9600088 243.98,97.2 C245.740009,95.4399912 246.62,93.3200124 246.62,90.84 L246.62,90.84 Z M284.06,105 L278.18,105 L278.18,86.94 C278.18,85.539993 277.620006,84.3800046 276.5,83.46 C275.179993,82.3799946 273.380011,81.84 271.1,81.84 C269.819994,81.84 268.480007,82.0999974 267.08,82.62 C266.159995,82.9800018 265.020007,83.5399962 263.66,84.3 L263.66,105 L257.84,105 L257.84,76.62 L263.66,76.62 L263.66,78.18 C264.820006,77.6999976 266.079993,77.2000026 267.44,76.68 C268.800007,76.1599974 270.019995,75.9 271.1,75.9 C275.02002,75.9 278.159988,76.9399896 280.52,79.02 C282.880012,81.1000104 284.06,83.6799846 284.06,86.76 L284.06,105 Z M318.38,105.06 L312.56,105.06 L312.56,103.86 C311.239993,104.500003 310.040005,104.989998 308.96,105.33 C307.879995,105.670002 306.760006,105.84 305.6,105.84 C301.479979,105.84 297.960015,104.380015 295.04,101.46 C292.119985,98.5399854 290.66,95.0200206 290.66,90.9 C290.66,86.8199796 292.119985,83.3200146 295.04,80.4 C297.960015,77.4799854 301.479979,76.02 305.6,76.02 C308.080012,76.02 310.399989,76.5799944 312.56,77.7 L312.56,62.1 L318.38,62.1 L318.38,105.06 Z M312.56,97.62 L312.56,84.06 C310.679991,83.1799956 309.560002,82.6800006 309.2,82.56 C308.079994,82.159998 306.880006,81.96 305.6,81.96 C303.079987,81.96 300.940009,82.8199914 299.18,84.54 C297.419991,86.2600086 296.54,88.3799874 296.54,90.9 C296.54,93.3800124 297.419991,95.4999912 299.18,97.26 C300.940009,99.0200088 303.079987,99.9 305.6,99.9 C306.600005,99.9 307.519996,99.7700013 308.36,99.51 C309.200004,99.2499987 310.59999,98.620005 312.56,97.62 L312.56,97.62 Z M354.38,90.84 C354.38,94.9200204 352.910015,98.4299853 349.97,101.37 C347.029985,104.310015 343.52002,105.78 339.44,105.78 C335.319979,105.78 331.800015,104.320015 328.88,101.4 C325.959985,98.4799854 324.5,94.9600206 324.5,90.84 C324.5,86.7199794 325.959985,83.2000146 328.88,80.28 C331.800015,77.3599854 335.319979,75.9 339.44,75.9 C343.560021,75.9 347.079985,77.3599854 350,80.28 C352.920015,83.2000146 354.38,86.7199794 354.38,90.84 L354.38,90.84 Z M348.44,90.84 C348.44,88.3599876 347.560009,86.2400088 345.8,84.48 C344.039991,82.7199912 341.920012,81.84 339.44,81.84 C336.959988,81.84 334.840009,82.7199912 333.08,84.48 C331.319991,86.2400088 330.44,88.3599876 330.44,90.84 C330.44,93.3200124 331.319991,95.4399912 333.08,97.2 C334.840009,98.9600088 336.959988,99.84 339.44,99.84 C341.920012,99.84 344.039991,98.9600088 345.8,97.2 C347.560009,95.4399912 348.44,93.3200124 348.44,90.84 L348.44,90.84 Z M385.88,105 L380,105 L380,86.94 C380,85.539993 379.440006,84.3800046 378.32,83.46 C376.999993,82.3799946 375.200011,81.84 372.92,81.84 C371.639994,81.84 370.300007,82.0999974 368.9,82.62 C367.979995,82.9800018 366.840007,83.5399962 365.48,84.3 L365.48,105 L359.66,105 L359.66,76.62 L365.48,76.62 L365.48,78.18 C366.640006,77.6999976 367.899993,77.2000026 369.26,76.68 C370.620007,76.1599974 371.839995,75.9 372.92,75.9 C376.84002,75.9 379.979988,76.9399896 382.34,79.02 C384.700012,81.1000104 385.88,83.6799846 385.88,86.76 L385.88,105 Z" id="London" fill="#000000" sketch:type="MSShapeGroup"></path>
            <path d="M74.7,77.7 C72.1799874,79.2600078 69.7400118,80.3599968 67.38,81 C65.0199882,81.6400032 62.2800156,81.96 59.16,81.96 C52.759968,81.96 47.3100225,79.7800218 42.81,75.42 C38.3099775,71.0599782 36.06,65.8000308 36.06,59.64 C36.06,53.5199694 38.2999776,48.2800218 42.78,43.92 C47.2600224,39.5599782 52.7199678,37.38 59.16,37.38 C62.1200148,37.38 64.9399866,37.7999958 67.62,38.64 C69.7400106,39.3200034 72.099987,40.359993 74.7,41.76 L74.7,48.66 C71.9799864,46.7399904 69.8000082,45.4600032 68.16,44.82 C65.759988,43.8999954 62.760018,43.44 59.16,43.44 C54.4399764,43.44 50.4200166,45.0199842 47.1,48.18 C43.7799834,51.3400158 42.12,55.1599776 42.12,59.64 C42.12,64.1200224 43.7899833,67.9499841 47.13,71.13 C50.4700167,74.3100159 54.4799766,75.9 59.16,75.9 C63.4800216,75.9 66.839988,75.2400066 69.24,73.92 C70.040004,73.4799978 71.8599858,72.2000106 74.7,70.08 L74.7,77.7 Z M100.5,64.62 L94.5,64.62 L94.5,70.62 L88.62,70.62 L88.62,64.62 L82.56,64.62 L82.56,58.74 L88.62,58.74 L88.62,52.74 L94.5,52.74 L94.5,58.74 L100.5,58.74 L100.5,64.62 Z M129.48,64.62 L123.48,64.62 L123.48,70.62 L117.6,70.62 L117.6,64.62 L111.54,64.62 L111.54,58.74 L117.6,58.74 L117.6,52.74 L123.48,52.74 L123.48,58.74 L129.48,58.74 L129.48,64.62 Z" id="C++" fill="#000000" sketch:type="MSShapeGroup"></path>
        </g>
    </g>
</svg>